<svg xmlns="http://www.w3.org/2000/svg" fill-rule="evenodd" stroke-linejoin="round" stroke-miterlimit="1.414" clip-rule="evenodd" viewBox="0 0 32 32"><rect width="32" height="32" fill="none"/><path fill="#d84315" d="M-33.01,10.594C-33.009,9.968 -33.007,9.351 -33.006,8.965C-32.992,7.435 -31.671,6.009 -30.043,5.984C-28.364,5.968 -9.658,5.978 -7.985,5.984C-6.451,5.998 -5.029,7.319 -5.004,8.947C-4.996,9.75 -4.991,11.554 -4.988,12.358C-4.988,12.358 -5.014,20.382 -5.023,23C-5.036,24.531 -6.378,25.96 -8.004,25.985C-15.345,26.054 -22.687,26.008 -30.029,25.985C-31.559,25.971 -32.981,24.65 -33.006,23.022C-33.035,19.88 -33.032,13.737 -33.022,10.594L-33.01,10.594Z" transform="translate(35.029)"/><path fill="#b12f07" d="M30.037,11.334C30.039,11.735 30.04,12.099 30.041,12.358L30.037,13.57L21.446,17.866C21.431,17.871 21.416,17.875 21.402,17.88C21.335,17.91 21.265,17.933 21.193,17.949C21.115,17.97 21.043,17.98 20.939,17.971L11,17.971C10.771,17.945 10.77,17.944 10.553,17.866L2.001,13.59C2.002,12.782 2.003,12.024 2.005,11.356L11.236,15.972L12.999,15.972C13,15.714 13,15.457 13,15.199C13.007,14.046 14.001,12.995 15.202,12.972C15.734,12.969 16.265,12.969 16.797,12.972C17.941,12.994 18.976,13.973 18.999,15.174C19.001,15.44 19.002,15.706 19.002,15.972L20.763,15.972L30.037,11.334Z" transform="translate(0 1)"/><path fill="#ff5722" d="M2.005,12.375C2.003,13.043 1.997,13.737 2.007,10.594L2.019,10.594C2.02,9.968 2.022,9.351 2.023,8.965C2.037,7.435 3.358,6.009 4.986,5.984C6.665,5.968 25.371,5.978 27.044,5.984C28.578,5.998 30,7.319 30.025,8.947C30.033,9.75 30.038,11.554 30.041,12.358L30.04,12.919C30.039,12.745 30.038,12.554 30.037,12.353L20.763,16.99L11.236,16.99L2.005,12.375Z"/><path fill="#bf360c" d="M-20,5.171C-20,5.109 -20,5.047 -19.999,4.985C-19.985,3.441 -18.653,2.02 -17.019,2.005C-15.007,1.998 -12.994,1.998 -10.982,2.005C-9.438,2.019 -8.007,3.342 -8.001,5.003L-8.001,5.987L-8,5.987L-8,7.958L-8.001,7.958L-8.001,9.004C-8.026,9.776 -9.07,10.311 -9.686,9.732C-9.854,9.575 -9.964,9.357 -9.993,9.129C-10,9.073 -9.999,9.059 -10.001,9.004L-10.001,9L-10,9L-10,8.413C-9.999,8.26 -9.999,8.107 -9.998,7.953L-10,7.953L-10,5.98L-9.992,5.98C-9.993,5.679 -9.996,5.377 -10,5.076L-10,5L-10.001,5L-10.001,4.984C-10.013,4.47 -10.46,4.009 -10.994,4.004C-13.003,3.998 -15.012,3.973 -17.02,4.005C-17.533,4.016 -17.995,4.458 -18,4.998L-18,5L-18,5L-18,9L-18,9.004C-18,9.004 -18.058,9.59 -18.464,9.848C-19.021,10.201 -19.903,9.831 -19.992,9.129C-19.999,9.073 -19.998,9.059 -20,9.004C-20,8.669 -20,8.335 -20,8L-20,8L-20,5.171Z" transform="translate(30 .016)"/><path fill="#ac2e07" d="M20.999,9.99L20.999,7.974L21,7.974L21,6.003L20.999,6.003L20.999,5.019C20.993,3.358 19.562,2.036 18.018,2.021C17.179,2.019 16.339,2.017 15.499,2.017C15.933,2.016 16.367,2.016 16.801,2.017L16.888,2.017L17.21,2.017L17.348,2.017L17.622,2.018L17.776,2.018L18.04,2.019L18.193,2.019L18.474,2.02L18.607,2.02L19.018,2.021C20.562,2.036 21.993,3.358 21.999,5.019L21.999,6.003L22,6.003L22,7.974L21.999,7.974L21.999,9.02C21.982,9.542 21.5,9.956 20.999,9.99Z"/><path fill="#ffc400" d="M13,15.322L13,15.199C13.007,14.046 14.001,12.995 15.202,12.972C15.734,12.969 16.265,12.969 16.797,12.972C17.941,12.994 18.976,13.973 18.999,15.174L19,15.37L19,17.971L19,17.971C18.999,18.229 18.999,18.486 18.999,18.743C18.992,19.889 18.017,20.947 16.797,20.971C16.016,20.976 15.194,21.083 14.515,20.853C13.651,20.561 13.018,19.703 13,18.769L13,18.733L13,15.322Z"/><path fill="#ff9800" d="M-14.983,15.909C-14.981,15.372 -14.984,14.836 -15.001,14.3C-15.006,14.182 -15.11,14.081 -15.228,14.079C-15.741,14.075 -16.254,14.079 -16.766,14.079C-16.89,14.079 -16.998,14.184 -17,14.306C-17.004,14.85 -17.012,15.395 -17.016,15.939C-17,16.046 -17,16.155 -17.018,16.261C-17.02,16.793 -17.017,17.325 -17,17.857C-16.995,17.974 -16.891,18.076 -16.773,18.078C-16.256,18.081 -15.739,18.094 -15.222,18.078C-15.104,18.072 -15.003,17.969 -15.001,17.85C-14.997,17.283 -14.988,16.716 -14.984,16.149C-14.994,16.069 -14.994,15.989 -14.983,15.909Z" transform="translate(32.019 .923)"/></svg>