<svg xmlns="http://www.w3.org/2000/svg" id="Layer_1" x="0" y="0" version="1.1" viewBox="0 0 64 65" xml:space="preserve"><circle cx="60.1" cy="34.6" r=".3" fill="#231f20"/><circle cx="6.6" cy="41.7" r=".3" fill="#231f20"/><circle cx="58.8" cy="19.8" r="1.1" fill="none" stroke="#fbd108" stroke-linecap="round" stroke-linejoin="round" stroke-miterlimit="10"/><path fill="none" stroke="#f16723" stroke-linecap="round" stroke-linejoin="round" stroke-miterlimit="10" d="M3.6 46.7h1.9M4.5 47.6v-1.9"/><circle cx="58.8" cy="32.5" r=".4" fill="#231f20"/><circle cx="17.2" cy="24.8" r=".3" fill="#231f20"/><circle cx="40.6" cy="12.8" r=".3" fill="#231f20"/><circle cx="7.7" cy="21.4" r=".3" fill="#231f20"/><circle cx="28.5" cy="27.2" r=".3" fill="#231f20"/><circle cx="56.1" cy="50.2" r=".3" fill="#231f20"/><circle cx="15.9" cy="22.7" r=".4" fill="#231f20"/><path fill="none" stroke="#4d9ad4" stroke-linecap="round" stroke-linejoin="round" stroke-miterlimit="10" d="M27.5 19.1h1.9M28.5 20.1v-2"/><path fill="#3768a4" d="M49.1 23.1h2.1c1.2 0 2.1 1 2.1 2.1v29.3H47V25.3c0-1.2.9-2.2 2.1-2.2z"/><path fill="#fff" d="M47.8 23.7h.8c.4 0 .8.4.8.8v30.7H47V24.5c0-.5.3-.8.8-.8z"/><path fill="#4d9ad4" d="M49.4 23.7h1c.6 0 1 .5 1 1v30.4h-3.1V24.7c.1-.6.5-1 1.1-1z"/><path fill="#3768a4" d="M37.6 30.4h2.1c1.2 0 2.1 1 2.1 2.1v22.2h-6.3V32.6c0-1.2 1-2.2 2.1-2.2z"/><path fill="#fff" d="M36.3 30.9h.8c.4 0 .8.4.8.8v23.5h-2.4V31.7c0-.5.4-.8.8-.8z"/><path fill="#4d9ad4" d="M37.9 30.9h1c.6 0 1 .5 1 1v23.3h-3.1V31.9c.1-.6.5-1 1.1-1z"/><path fill="#3768a4" d="M26.2 37.6h2.1c1.2 0 2.1 1 2.1 2.1v15.1H24v-15c0-1.2 1-2.2 2.2-2.2z"/><path fill="#fff" d="M25.1 37.9h.7c.4 0 .7.3.7.7v16.5h-2V38.6c-.1-.4.2-.7.6-.7z"/><path fill="#4d9ad4" d="M26.4 37.9h1c.6 0 1 .5 1 1v16.2h-3.1V38.9c.1-.5.6-1 1.1-1z"/><path fill="#3768a4" d="M14.7 44.2h2.1c1.2 0 2.1 1 2.1 2.1V55h-6.3v-8.7c-.1-1.2.9-2.1 2.1-2.1z"/><path fill="#fff" d="M13.8 44.4h.8c.2 0 .4.2.4.4v10.4h-2.4v-9.6c-.1-.7.5-1.2 1.2-1.2z"/><path fill="#4d9ad4" d="M14.9 44.4h1c.6 0 1 .5 1 1v9.8h-3.1v-9.8c.1-.6.6-1 1.1-1z"/><path fill="none" stroke="#231f20" stroke-linecap="round" stroke-linejoin="round" stroke-miterlimit="10" stroke-width="1.5" d="M8.7 54.9h48.4M9.2 38.4s30.1-5.3 44.3-26.6M51.3 9.9h4.2v3.6M53.3 32.3v22.6H47v-29c0-1.3 1.1-2.4 2.4-2.4h1.5c1.3 0 2.4 1.1 2.4 2.4v4.3M35.5 37.5v-4.6c0-1.3 1.1-2.4 2.4-2.4h1.5c1.3 0 2.4 1.1 2.4 2.4v22h-6.3V39.4M30.4 44.6V55H24V40c0-1.3 1.1-2.4 2.4-2.4h1.5c1.3 0 2.4 1.1 2.4 2.4v2.7M12.5 48.8v-2c0-1.3 1.1-2.4 2.4-2.4h1.5c1.3 0 2.4 1.1 2.4 2.4v8.1h-6.3v-3.8"/></svg>