<svg xmlns="http://www.w3.org/2000/svg" data-name="Layer 1" viewBox="0 0 512 512"><path fill="#787681" d="M412,213.75l-60-26.13v-55.2a11.32,11.32,0,0,1,11.5-11.12h37A11.31,11.31,0,0,1,412,132.42Z"/><path fill="#57565c" d="M400.5,121.3H375.65a11.31,11.31,0,0,1,11.49,11.12v70.5L412,213.75V132.42A11.31,11.31,0,0,0,400.5,121.3Z"/><path fill="#efefef" d="M412,231.82l-.39,246.29a26.44,26.44,0,0,1-26.43,26.39H64.48A26.43,26.43,0,0,1,38.05,478l.4-246.21L225,87.57Z"/><path fill="#dadadc" d="M225,87.57,210,99.16,382,231.82l-.39,246.29a26.44,26.44,0,0,1-26.43,26.39h30a26.44,26.44,0,0,0,26.43-26.39L412,231.82Z"/><path fill="#eb304a" d="M412.13,256.67l-187.35-143-187.35,143A19.62,19.62,0,0,1,9.87,252.9h0a19.78,19.78,0,0,1,3.75-27.66L218.83,68.66a9.8,9.8,0,0,1,11.91,0l205.2,156.58a19.79,19.79,0,0,1,3.76,27.66h0A19.63,19.63,0,0,1,412.13,256.67Z"/><path fill="#e4222e" d="M179.78 125.16L10.85 254.07a19.6 19.6 0 0 0 26.58 2.6L209.78 125.16h0A24.72 24.72 0 0 0 179.78 125.16zM435.94 225.24L230.74 68.66a9.8 9.8 0 0 0-11.91 0l-9.05 6.9L405.94 225.24a19.79 19.79 0 0 1 3.76 27.66h0c-.31.41-.65.79-1 1.17l3.41 2.6a19.63 19.63 0 0 0 27.57-3.77h0A19.79 19.79 0 0 0 435.94 225.24z"/><path fill="#f9b15e" d="M205.84,288.68V504.5H83.38V288.68a4,4,0,0,1,4-4H201.84A4,4,0,0,1,205.84,288.68Z"/><rect width="107.49" height="101.31" x="244.6" y="284.68" fill="#52bbe9" rx="4"/><rect width="15" height="101.31" x="290.85" y="284.68" fill="#a8d9f5"/><path fill="#a8d9f5" d="M352.09,328.76v14a7.3,7.3,0,0,1-2.65.49H248.13a7.51,7.51,0,0,1-3.53-.88V329.16a7.4,7.4,0,0,1,3.53-.89H349.44A7.3,7.3,0,0,1,352.09,328.76Z"/><circle cx="224.78" cy="206.77" r="30" fill="#fff"/><path fill="#e1e1e3" d="M224.78,176.77a29.69,29.69,0,0,0-9.47,1.54,30,30,0,0,1,0,56.93,30,30,0,1,0,9.47-58.47Z"/><path fill="#fff" d="M205.84,387.09v15h-21.2a7.5,7.5,0,0,1,0-15Z"/><path fill="#fed947" d="M412.07,504.5a92.42,92.42,0,1,1,65.36-27.07A91.82,91.82,0,0,1,412.07,504.5Z"/><path fill="#fecc30" d="M477.43,346.71a91.86,91.86,0,0,0-65.36-27.07,93.32,93.32,0,0,0-15,1.23,92.42,92.42,0,0,1,0,182.4,93.32,93.32,0,0,0,15,1.23,92.43,92.43,0,0,0,65.36-157.79Z"/><path fill="#f8be32" d="M412.07,512a99.93,99.93,0,1,1,70.66-29.27A99.25,99.25,0,0,1,412.07,512Zm0-184.86A84.95,84.95,0,1,0,472.12,352,84.38,84.38,0,0,0,412.07,327.14Z"/><path fill="#fff" d="M401.93,428H378.69a7.5,7.5,0,0,1,0-15h23.24a21.06,21.06,0,0,0,0-42.11H385.24a7.5,7.5,0,0,1,0-15h16.69a36.06,36.06,0,0,1,0,72.11Z"/><path fill="#fff" d="M446.09 370.93h-67.4a7.5 7.5 0 0 1 0-15h67.4a7.5 7.5 0 0 1 0 15zM446.09 399h-67.4a7.5 7.5 0 0 1 0-15h67.4a7.5 7.5 0 0 1 0 15zM429.38 477.62a7.45 7.45 0 0 1-5.22-2.12l-51.1-49.64a7.5 7.5 0 1 1 10.46-10.75l51.09 49.64a7.5 7.5 0 0 1-5.23 12.87z"/></svg>