<svg xmlns="http://www.w3.org/2000/svg" data-name="Layer 1" viewBox="0 0 512 512"><path fill="#f0f0f2" d="M471.13,7.5l-30,70v397a29.99816,29.99816,0,0,1-30,30h-329l30-54.29V37.5a29.99817,29.99817,0,0,1,30-30Z"/><path fill="#dadadc" d="M377.12816,434.5H49.12805v40a30,30,0,0,0,30,30h333"/><path fill="#f0f0f2" d="M378.12817,434.5V473a31.5,31.5,0,0,0,31.5,31.5h.00007a31.5,31.5,0,0,0,31.5-31.5V434.5"/><path fill="#dadadc" d="M472.81405 7.5h.00006A31.68589 31.68589 0 0 1 504.5 39.18589V77.5a0 0 0 0 1 0 0H441.12817a0 0 0 0 1 0 0V39.18589A31.68589 31.68589 0 0 1 472.81405 7.5zM366.81445 175H157.12793a7.5 7.5 0 0 1 0-15H366.81445a7.5 7.5 0 1 1 0 15zM330 220H157.12793a7.5 7.5 0 0 1 0-15H330a7.5 7.5 0 0 1 0 15zM316.27441 265H199a7.5 7.5 0 0 1 0-15H316.27441a7.5 7.5 0 0 1 0 15zM330 310H202a7.5 7.5 0 0 1 0-15H330a7.5 7.5 0 0 1 0 15zM366.81445 355H186.814a7.5 7.5 0 1 1 0-15H366.81445a7.5 7.5 0 1 1 0 15zM396.81445 400H246.814a7.5 7.5 0 1 1 0-15H396.81445a7.5 7.5 0 1 1 0 15z"/><path fill="#24b378" d="M396.81445 60h-47.248a7.5 7.5 0 0 1 0-15h47.248a7.5 7.5 0 0 1 0 15zM396.81445 85.77148h-47.248a7.5 7.5 0 0 1 0-15h47.248a7.5 7.5 0 0 1 0 15z"/><path fill="#24b378" d="M383.92969,147.519a7.47761,7.47761,0,0,1-5.42481-2.31982l-34.3623-35.97608A7.50029,7.50029,0,0,1,349.56641,96.543h8.59082a18.27148,18.27148,0,0,0,0-36.543h-8.59082a7.5,7.5,0,0,1,0-15h8.59082a33.27381,33.27381,0,0,1,8.01269,65.56787l23.18262,24.271a7.5,7.5,0,0,1-5.42285,12.68017Z"/><rect width="166.066" height="75" x="153.5" y="52.5" fill="#dadadc" rx="10"/><path fill="#e1e1e3" d="M441.13,161.57V350.43c-1.21008.05-2.42.07-3.63.07a94.5,94.5,0,0,1,0-189C438.71,161.5,439.91992,161.52,441.13,161.57Z"/><path fill="#24b378" d="M437.5,330.5A74.5,74.5,0,1,1,512,256,74.5845,74.5845,0,0,1,437.5,330.5Z"/><path fill="#19ac66" d="M437.5,181.5a74.55349,74.55349,0,0,0-15,1.5174,74.51017,74.51017,0,0,1,0,145.9652A74.50372,74.50372,0,1,0,437.5,181.5Z"/><path fill="#fff" d="M426.12305,282.20361a7.50112,7.50112,0,0,1-5.30371-2.19677L406.167,265.35449a7.50023,7.50023,0,1,1,10.60742-10.60644l9.34864,9.34912,32.10254-32.104A7.50024,7.50024,0,1,1,468.833,242.59961l-37.40625,37.40723A7.50116,7.50116,0,0,1,426.12305,282.20361Z"/><path fill="#2370b5" d="M224.65,479.42a25.00079,25.00079,0,0,1-25,25.08h-167a24.99855,24.99855,0,0,1-25-24.92L7.5,431.45a34.97967,34.97967,0,0,1,23.59009-33.08l39.81982-13.74a34.85319,34.85319,0,0,0,14.42017-9.47C91.1,368.85,109.5,360.5,109.5,351.55l-15-25.05h43l-15,25.05c0,8.57,18.12,16.6,23.45,22.8a34.80776,34.80776,0,0,0,15.14014,10.28l39.81982,13.74A34.97967,34.97967,0,0,1,224.5,431.45Z"/><path fill="#1067ae" d="M224.5,431.45a34.97967,34.97967,0,0,0-23.59009-33.08l-39.81982-13.74A34.80776,34.80776,0,0,1,145.95,374.35C140.62,368.15,122.5,360.12,122.5,351.55l15-25.05h-15l-14,23.38,1,1.67a8.026,8.026,0,0,1-.967,3.64251c3.9021,7.18818,17.84985,13.84491,22.417,19.15748a34.80776,34.80776,0,0,0,15.14014,10.28l39.81982,13.74A34.97967,34.97967,0,0,1,209.5,431.45l.15,47.97a25.00079,25.00079,0,0,1-25,25.08h15a25.00079,25.00079,0,0,0,25-25.08Z"/><path fill="#fed947" d="M126.32,385.02l13.67765,64.73592a10,10,0,0,1-2.10179,8.469l-14.21365,17.05638a10,10,0,0,1-15.36442,0L94.10307,458.22369a10,10,0,0,1-2.10234-8.46641L105.69,384.88Z"/><path fill="#fed030" d="M139.99768,449.75592,126.32007,385.02l-20.63013-.14-.02136.10163,5.65149.03833,13.67761,64.736a10.00006,10.00006,0,0,1-2.10181,8.46906l-14.21374,17.05633c-.05774.0694-.12293.12775-.18213.19513a9.99265,9.99265,0,0,0,15.18213-.19513L137.89587,458.225A10.00006,10.00006,0,0,0,139.99768,449.75592Z"/><path fill="#fdd8ae" d="M145.95,374.35,144.37,376.17a45.92133,45.92133,0,0,1-25.98,9.97,44.94374,44.94374,0,0,1-16.522-2.231,46.20633,46.20633,0,0,1-8.14322-3.70845c-2.59668-1.46566-5.04229-3.184-7.64539-4.6324q-.37284-.20747-.74936-.40822A34.943,34.943,0,0,0,94.5,351.55V326.5h43v25.05A34.942,34.942,0,0,0,145.95,374.35Z"/><path fill="#fbbf7d" d="M137.5,351.55V326.5h-15v25.05a34.942,34.942,0,0,0,8.45,22.8L129.37,376.17a46.24631,46.24631,0,0,1-20.84668,9.388,44.53837,44.53837,0,0,0,9.86669.582,45.92133,45.92133,0,0,0,25.98-9.97l1.57995-1.82A34.942,34.942,0,0,1,137.5,351.55Z"/><path fill="#fdd8ae" d="M147,263.5l15,15.66V310.5a46,46,0,0,1-92,0V294.16L85,263.5c0-14.36-3.36-11,11-11h40C150.36,252.5,147,249.14,147,263.5Z"/><path fill="#fbbf7d" d="M147 263.5v47a45.99785 45.99785 0 0 1-38.5 45.382A45.98631 45.98631 0 0 0 162 310.5V279.16zM96 252.5c-6.85474 0-9.66724-.7616-10.7395 0zM138.52832 252.46448C143.73364 253.26044 147 255.89423 147 263.5 147 250.0531 149.9447 252.14417 138.52832 252.46448z"/><path fill="#787681" d="M162,263.5v15.66l-53.48-13.15a13.99684,13.99684,0,0,0-13.08008,3.53L70,294.16V263.5a25.99925,25.99925,0,0,1,26-26h40A25.99925,25.99925,0,0,1,162,263.5Z"/><path fill="#57565c" d="M136,237.5H121a25.99925,25.99925,0,0,1,26,26v11.97168L162,279.16V263.5A25.99925,25.99925,0,0,0,136,237.5Z"/><path fill="#1067ae" d="M189.5 468.01V504.5h-15V468.01a7.5 7.5 0 1 1 15 0zM56.5 468.01V504.5h-15V468.01a7.5 7.5 0 1 1 15 0z"/></svg>