<svg xmlns="http://www.w3.org/2000/svg" enable-background="new 0 0 512 512" viewBox="0 0 512 512"><path fill="#eceff1" fill-rule="evenodd" d="M240.518,68.512L82.554,183.279v202.472c0,26.733,21.873,48.605,48.605,48.605h218.719
				c26.732,0,48.604-21.872,48.604-48.605V183.28L240.518,68.512z" clip-rule="evenodd"/><path fill="#e1e4e6" fill-rule="evenodd" d="M240.518,434.356h109.359c26.732,0,48.604-21.872,48.604-48.605V183.28L240.518,68.512V434.356z" clip-rule="evenodd"/><path fill="#fe646f" fill-rule="evenodd" d="M61.956,213.713c-15.201,11.015-36.454,7.622-47.469-7.579c-11.015-15.201-7.622-36.454,7.579-47.469
				L220.573,14.441c12.415-8.996,28.865-8.38,40.479,0.428l197.917,143.796c15.201,11.015,18.594,32.268,7.579,47.469
				c-11.015,15.201-32.268,18.594-47.469,7.579L240.518,83.981L61.956,213.713z" clip-rule="evenodd"/><path fill="#fd4755" fill-rule="evenodd" d="M240.518,7.973c7.319,0.007,14.565,2.369,20.534,6.896l197.917,143.796
				c15.201,11.015,18.594,32.269,7.579,47.47c-11.015,15.201-32.268,18.594-47.469,7.579L240.518,83.981V7.973z" clip-rule="evenodd"/><path fill="#f1ba84" fill-rule="evenodd" d="M264.767,248.441h-48.499c-12.575,0-22.863,10.289-22.863,22.863v163.051h94.226V271.305
				C287.631,258.73,277.342,248.441,264.767,248.441z" clip-rule="evenodd"/><path fill="#de9252" fill-rule="evenodd" d="M264.767,248.441h-24.249v185.914h47.113V271.305C287.631,258.73,277.342,248.441,264.767,248.441z" clip-rule="evenodd"/><circle cx="374.851" cy="374.806" r="129.167" fill="#8ac9fe" fill-rule="evenodd" clip-rule="evenodd" transform="rotate(-45.001 374.849 374.812)"/><path fill="#60b7ff" fill-rule="evenodd" d="M374.851,245.639c71.337,0,129.167,57.83,129.167,129.167s-57.83,129.167-129.167,129.167V245.639z" clip-rule="evenodd"/><path fill-rule="evenodd" d="M320.889,328.39c0-8.37,6.803-15.182,15.168-15.182c8.374,0,15.182,6.813,15.182,15.182
		c0,8.369-6.808,15.172-15.182,15.172C327.692,343.562,320.889,336.759,320.889,328.39L320.889,328.39z M367.242,328.39
		c0-17.187-13.993-31.18-31.185-31.18c-17.187,0-31.166,13.993-31.166,31.18c0,17.192,13.979,31.17,31.166,31.17
		C353.249,359.56,367.242,345.582,367.242,328.39L367.242,328.39z M430.181,312.071c2.576-3.59,1.755-8.591-1.83-11.162
		c-3.59-2.581-8.582-1.76-11.163,1.821l-97.611,135.872c-2.576,3.586-1.76,8.586,1.831,11.157c1.41,1.019,3.043,1.51,4.661,1.51
		c2.491,0,4.94-1.16,6.501-3.331L430.181,312.071L430.181,312.071z M413.622,436.46c-8.374,0-15.182-6.808-15.182-15.182
		c0-8.37,6.808-15.168,15.182-15.168c8.365,0,15.168,6.798,15.168,15.168C428.79,429.653,421.987,436.46,413.622,436.46
		L413.622,436.46z M413.622,390.108c17.187,0,31.166,13.984,31.166,31.171c0,17.192-13.979,31.18-31.166,31.18
		c-17.191,0-31.185-13.988-31.185-31.18C382.438,404.092,396.431,390.108,413.622,390.108L413.622,390.108z M374.837,495.999
		c66.813,0,121.172-54.349,121.172-121.167c0-66.813-54.358-121.162-121.172-121.162c-66.809,0-121.162,54.349-121.162,121.162
		C253.675,441.65,308.028,495.999,374.837,495.999L374.837,495.999z M201.392,426.378v-155.05c0-8.19,6.671-14.856,14.866-14.856
		h48.499c8.195,0,14.866,6.666,14.866,14.856v4.873c-25.849,24.957-41.95,59.949-41.95,98.63c0,18.23,3.581,35.629,10.063,51.547
		H201.392L201.392,426.378z M90.543,385.782c0,22.391,18.215,40.597,40.602,40.597h54.25v-155.05
		c0-17.008,13.847-30.859,30.864-30.859h48.499c14.356,0,26.453,9.851,29.892,23.15c22.56-16.319,50.273-25.948,80.188-25.948
		c5.293,0,10.502,0.307,15.635,0.887V202.85L240.507,93.902L90.543,202.85V385.782L90.543,385.782z M57.25,207.27
		c-11.606,8.398-27.887,5.803-36.299-5.798c-8.407-11.611-5.808-27.891,5.808-36.313L225.255,20.95
		c9.337-6.77,21.777-6.638,30.954,0.321c0.042,0.028,0.085,0.071,0.132,0.099l197.921,143.798
		c11.61,8.412,14.21,24.693,5.798,36.303c-8.407,11.601-24.688,14.196-36.289,5.798L245.206,77.54
		c-1.401-1.019-3.052-1.529-4.699-1.529c-1.651,0-3.302,0.51-4.704,1.529L57.25,207.27L57.25,207.27z M406.47,241.361v-26.882
		l7.902,5.742c18.749,13.578,45.055,9.379,58.647-9.36c13.578-18.748,9.379-45.06-9.36-58.638L265.804,8.472
		C250.981-2.719,230.921-2.917,215.857,8L17.361,152.209c-18.748,13.592-22.947,39.903-9.365,58.651
		c8.204,11.318,21.046,17.328,34.058,17.328c8.539,0,17.159-2.59,24.585-7.968c0.005,0,0.009,0,0.009-0.01l7.893-5.732v171.303
		c0,31.208,25.396,56.599,56.604,56.599h124.351c23.603,41.54,68.252,69.621,119.341,69.621c75.631,0,137.174-61.529,137.174-137.17
		C512.011,310.08,466.909,255.68,406.47,241.361z" clip-rule="evenodd"/></svg>